<?xml version="1.0" standalone="no"?>
<!DOCTYPE svg PUBLIC "-//W3C//DTD SVG 20010904//EN"
 "http://www.w3.org/TR/2001/REC-SVG-20010904/DTD/svg10.dtd">
<svg version="1.0" xmlns="http://www.w3.org/2000/svg"
 width="1050.000000pt" height="1280.000000pt" viewBox="0 0 1050.000000 1280.000000"
 preserveAspectRatio="xMidYMid meet">
<metadata>
Created by potrace 1.15, written by Peter Selinger 2001-2017
</metadata>
<g transform="translate(0.000000,1280.000000) scale(0.100000,-0.100000)"
fill="#000000" stroke="none">
<path d="M2182 12773 c69 -72 149 -322 187 -591 63 -435 49 -927 -32 -1143
-13 -35 -50 -114 -81 -176 -179 -358 -258 -681 -241 -985 34 -608 415 -1153
1143 -1635 61 -41 112 -76 112 -78 0 -9 -80 -45 -98 -45 -43 0 -125 33 -198
81 -97 63 -212 155 -464 369 -400 341 -606 503 -825 650 -490 328 -1061 535
-1375 500 -107 -12 -127 -22 -139 -67 -21 -81 -62 -311 -91 -510 -101 -703
-102 -1259 -5 -1818 65 -376 67 -641 9 -1244 -47 -490 -44 -801 11 -1076 23
-116 85 -324 105 -355 8 -12 40 -15 192 -14 228 1 378 22 598 86 386 111 783
338 1205 689 110 91 479 457 703 695 117 126 149 155 187 167 24 9 47 12 50 7
13 -21 -39 -220 -285 -1090 -275 -975 -280 -991 -480 -1920 -104 -485 -128
-605 -169 -835 -112 -633 -137 -1121 -71 -1429 25 -121 54 -201 71 -200 8 1
64 36 124 79 179 126 474 320 643 421 229 138 392 218 518 255 127 36 195 69
398 191 483 291 1279 875 1648 1211 l88 80 177 1 c145 2 197 7 277 25 249 57
488 174 709 345 44 33 91 70 106 81 61 47 -84 -120 -244 -281 -192 -192 -305
-291 -591 -515 -184 -145 -341 -281 -539 -467 -90 -85 -84 -85 20 -2 137 111
276 211 422 306 223 146 472 340 676 526 53 50 97 88 97 85 0 -11 -134 -175
-233 -286 -179 -200 -338 -335 -617 -521 -190 -127 -361 -251 -725 -525 -361
-273 -447 -335 -578 -416 -159 -99 -250 -134 -1172 -449 -855 -292 -1416 -505
-1790 -680 -125 -58 -337 -171 -332 -177 2 -2 24 4 48 13 24 9 145 51 269 94
224 78 441 154 830 290 113 40 268 94 345 120 127 44 350 122 665 232 63 22
126 43 140 48 20 7 493 169 659 227 141 48 495 225 811 404 118 67 306 168
417 225 554 284 983 585 1379 967 199 192 436 476 560 672 26 41 49 73 52 70
2 -2 -34 -82 -80 -177 -184 -377 -373 -633 -709 -963 -464 -455 -1061 -868
-1925 -1330 -542 -291 -1338 -661 -1966 -915 -117 -48 -136 -62 -42 -31 1486
487 2757 1095 3634 1740 411 302 773 648 1022 977 194 256 331 509 415 766 42
129 39 126 414 594 496 619 521 657 708 1075 49 109 57 121 154 220 254 259
1050 1295 1202 1564 15 28 57 92 92 143 85 123 123 196 123 239 0 43 -25 99
-56 121 l-22 17 26 28 c53 55 29 132 -72 233 -57 57 -124 103 -571 394 -234
152 -294 204 -433 380 -522 659 -965 1115 -1399 1443 -601 452 -1527 922
-2504 1271 -242 86 -303 109 -479 184 -423 180 -1119 514 -1988 954 -315 159
-635 319 -710 354 -119 56 -133 61 -110 37z m-1862 -3104 c15 -5 2 -6 -35 -2
-33 3 -67 10 -75 14 -17 11 70 1 110 -12z"/>
</g>
</svg>
